<svg xmlns="http://www.w3.org/2000/svg" viewBox="0 0 300 67.815" width="300" height="67.815">
  <path d="M190.616 20.791c-.248-3.649-2.284-4.667-5.679-4.977-12.332.124-24.694-.23-37.001.18-1.036.254-2.253.627-3.004 1.415-.757.794-1.098 2.029-1.179 3.103-.645 8.645.503 18.079 0 26.804.261 3.457 2.52 4.444 5.679 4.698 12.332-.13 24.694.23 37.001-.18 2.774-.552 3.991-1.992 4.183-4.797-.453-8.577.577-17.731 0-26.246"/>
  <path d="M196.245 0H13.511C6.045 0 0 6.045 0 13.511V54.31c0 7.46 6.045 13.511 13.511 13.511h182.741c7.46 0 13.511-6.045 13.511-13.511V13.511C209.762 6.051 203.717 0 196.251 0ZM68.864 49.55c0 7.789-10.066 9.775-16.055 10.035-8.974.391-18.221-.31-27.226 0-7.05-.465-15.509-1.992-16.062-10.588.534-9.893-.689-20.493.006-30.305.596-8.409 9.005-9.992 15.919-10.451H68.02v7.572H26.153c-2.104.273-6.094.366-6.796 2.886-.348 9.837-.043 19.736-.155 29.597.149 3.215 4.611 3.593 7.081 3.717 8.515.441 17.408-.348 25.96 0 1.812-.261 5.151-.317 6.374-1.899.168-.217.565-1.043.565-1.26v-17.32h9.682v18.023Zm60.361-33.737H86.16v12.903h40.961v7.578H86.16v15.714h43.065v7.578H76.479V8.242h52.746v7.578Zm71.067 31.776c-.484 8.602-6.461 11.606-14.373 12.003-12.344.621-25.203-.478-37.597-.006-7.503-.465-13.703-3.264-14.237-11.575-.59-9.129.441-18.867-.006-28.058.496-8.267 6.473-11.215 14.007-11.668 12.425-.745 25.483.472 37.969-.037 8.099.596 13.815 3.432 14.243 12.263-.385 8.912.49 18.215-.006 27.078M255.328 9.93c-1.961.199-4.332-.23-6.237 0-.149.019-.292 0-.397.143l-32.806 49.376h10.352c8.453-12.58 16.44-25.464 24.825-38.087.205-.304 1.018-1.688 1.285-1.688l25.365 39.775h10.55l-32.539-49.376zm35.201-.254H300v49.513h-9.471z"/>
</svg>
