<?xml version="1.0" encoding="UTF-8"?>
<svg id="b" data-name="Layer 2" xmlns="http://www.w3.org/2000/svg" viewBox="0 0 55.37 55.16">
  <defs>
    <style>
      .d {
        fill: #fff;
        fill-rule: evenodd;
      }
    </style>
  </defs>
  <g id="c" data-name="Layer 1">
    <path class="d" d="M32.6,0C32.2,0,31.83.09,31.49.2c.73.49,1.13,1.13,1.33,1.86.01.1.04.17.06.27.01.09.03.17.03.26.06,1.26-.33,1.42-.6,2.16-.41.96-.3,1.99.2,2.82.04.1.1.21.17.31-.54-3.62,2.47-4.16,3.03-5.29.04-.99-.77-1.64-1.42-2.1-.61-.37-1.17-.49-1.69-.49h0ZM37.15.82c-.06.33-.01.24-.03.41-.01.11-.01.26-.03.37-.03.11-.06.23-.1.34-.03.11-.07.23-.11.34-.06.11-.1.21-.16.33-.04.06-.07.11-.11.17-.03.04-.06.09-.09.13-.07.1-.14.2-.21.29-.09.09-.16.19-.26.26h0c-.09.09-.17.17-.27.24-.3.23-.64.4-.96.61-.1.07-.2.13-.29.21-.1.07-.19.14-.27.23-.1.09-.17.17-.26.27-.07.09-.16.19-.21.29-.07.1-.14.2-.2.3-.06.11-.1.21-.16.33-.04.11-.09.21-.11.33-.04.13-.07.24-.1.36-.01.06-.01.13-.03.19-.01.06-.01.11-.03.17,0,.11-.01.24-.01.36,0,.09,0,.17.01.26,0,.11.01.23.04.36.01.11.04.23.07.34.04.11.07.23.11.34.03.07.07.14.1.2l-3.29-1.27c-.56-.16-1.1-.3-1.66-.43-.3-.07-.6-.14-.9-.21-.86-.17-1.73-.3-2.6-.39-.03,0-.04-.01-.07-.01-.86-.09-1.7-.13-2.56-.13-.63,0-1.26.03-1.87.07-.87.06-1.74.17-2.62.31-.21.03-.43.07-.64.11-.44.09-.87.19-1.29.29-.21.06-.43.11-.64.17-.21.09-.41.19-.61.27-.16.07-.31.14-.47.21-.03.01-.06.01-.07.03-.14.07-.27.13-.4.2-.04.01-.07.03-.1.04-.16.07-.31.16-.44.23-.1.04-.2.1-.29.14-.04.03-.1.06-.13.07-.13.07-.26.14-.37.21-.13.07-.24.14-.34.21-.1.07-.2.13-.29.2-.01.01-.03.01-.04.03-.09.06-.19.13-.27.2,0,0-.01.01-.03.03-.07.06-.14.11-.21.17-.03.01-.06.04-.09.06-.07.06-.14.13-.21.19-.01.03-.04.04-.06.06-.09.09-.17.16-.26.24-.01,0-.01.01-.03.03-.09.07-.17.16-.26.24-.01.01-.01.03-.03.03-.07.07-.14.14-.21.23-.03.03-.07.06-.1.09-.07.09-.16.17-.24.26-.01.03-.04.04-.06.07-.11.11-.21.23-.33.34-.01.01-.03.03-.04.04-.23.24-.47.49-.73.7-.26.23-.53.44-.8.63-.29.2-.56.37-.86.54-.29.16-.59.3-.9.43-.3.13-.61.24-.93.34-.6.13-1.22.37-1.74.41-.11,0-.24.03-.36.04-.13.03-.24.06-.36.09-.11.04-.23.09-.34.13-.11.04-.23.1-.34.16-.1.07-.21.13-.31.2-.1.07-.2.16-.29.24-.1.07-.2.17-.29.26-.09.1-.17.19-.24.29-.07.11-.16.21-.21.33-.07.1-.14.21-.2.33-.06.13-.11.24-.16.37-.04.11-.09.24-.13.37-.03.11-.06.23-.07.34,0,.01-.01.03-.01.04-.03.13-.03.3-.04.39-.01.1-.03.19-.03.29,0,.06,0,.13.01.19.01.1.03.19.06.27.03.09.06.17.1.26H.17c.04.1.1.19.16.27.06.09.11.17.19.26.07.07.16.16.24.23.09.09.17.16.27.23.34.3.43.4.87.63.07.04.14.07.23.11.01,0,.03.01.04.01,0,.03,0,.04.01.07.01.11.04.23.07.34.03.13.07.24.11.34.04.09.07.17.11.26.01.03.03.06.04.07.06.11.11.21.17.31.07.1.14.2.21.3.07.09.16.19.24.27.09.09.17.16.27.24,0,0,.01.01.03.01.09.07.17.14.26.2.1.07.2.13.31.19.1.06.21.11.33.16.09.04.19.07.29.1.01.01.03.01.06.03.06.01.13.03.19.04-.04.77-.06,1.5.06,1.76.13.29.76-.59,1.39-1.59-.09.99-.14,2.15,0,2.49.16.36,1.02-.76,1.76-1.99,10.14-2.35,19.39,4.66,20.36,14.56-.19-1.54-2.09-2.4-2.96-2.19-.43,1.06-1.16,2.42-2.33,3.26.1-.94.06-1.92-.14-2.86-.31,1.32-.93,2.55-1.77,3.6-1.36.1-2.72-.56-3.43-1.54-.06-.04-.07-.13-.11-.19-.04-.1-.09-.2-.11-.3-.04-.1-.07-.2-.09-.3-.01-.1-.01-.2-.01-.31v-.21c.01-.1.04-.2.07-.3.03-.1.06-.2.1-.3.06-.1.1-.2.17-.3.24-.69.24-1.24-.2-1.57-.09-.06-.17-.1-.27-.14-.06-.01-.13-.04-.19-.06-.04-.01-.07-.03-.11-.04-.1-.03-.2-.06-.3-.07-.1-.03-.2-.04-.3-.04-.1-.01-.21-.03-.31-.03-.07,0-.14.01-.21.01-.11,0-.21.01-.31.04-.1.01-.2.03-.3.06-.1.03-.2.06-.3.1-.1.04-.19.09-.29.13-.09.04-.17.1-.27.14-3.33,2.17-1.34,7.26.93,8.74-.86.16-1.73.34-1.97.53-.01.01-.03.03-.03.03.61.37,1.26.69,1.93.96.92.3,1.89.57,2.32.69h0c1.19.26,2.39.34,3.6.27,6.34-.44,11.53-5.26,12.47-11.61.03.13.06.24.09.37.04.26.1.53.13.8h0c.03.14.04.27.06.39v.06c.01.13.03.26.03.37.01.16.03.31.03.47v.23c0,.07.01.16.01.23,0,.09-.01.17-.01.26v.2c0,.1-.01.19-.01.29,0,.06,0,.11-.01.19,0,.1-.01.2-.01.31-.01.04-.01.09-.01.13-.01.11-.03.21-.04.33,0,.04,0,.09-.01.13-.01.14-.04.27-.06.41h0v.03c-.03.13-.06.27-.09.4v.04c-.03.13-.06.26-.09.39,0,.01-.01.04-.01.06-.03.13-.06.26-.1.39v.04c-.04.14-.09.27-.11.4-.01.01-.01.03-.01.03-.04.14-.09.29-.13.43-.06.14-.1.27-.16.41-.06.14-.1.29-.16.41-.06.14-.11.27-.17.41h-.01c-.06.13-.11.27-.19.4-.01.04-.03.07-.04.1-.01.01-.01.03-.03.04-.93,1.87-2.3,3.52-4.02,4.8-.11.07-.23.16-.34.24-.03.03-.07.04-.1.07-.1.07-.2.14-.31.21l.04.09h.01c.2-.03.4-.06.6-.09h.01c.37-.06.74-.13,1.12-.2.1-.01.21-.04.31-.07.07-.01.13-.03.2-.04.1-.01.2-.04.3-.06.09-.03.17-.04.26-.07,1.43-.34,2.82-.82,4.15-1.37-2.27,3.1-5.32,5.61-8.88,7.25,1.64-.11,3.29-.39,4.88-.84,5.76-1.7,10.61-5.58,13.51-10.8-.59,3.3-1.9,6.45-3.85,9.2,1.39-.92,2.66-1.97,3.82-3.17,3.2-3.35,5.31-7.59,6.02-12.16.49,2.26.63,4.59.41,6.89,10.32-14.4.86-29.33-3.1-33.26-.01-.03-.03-.04-.03-.07t-.01.03s0-.01-.01-.03c0,.17-.01.34-.03.51-.04.33-.09.64-.14.96-.07.31-.16.63-.24.94-.1.3-.21.61-.34.92-.13.29-.27.59-.43.87-.16.27-.33.56-.51.82-.19.27-.39.53-.59.77-.21.26-.44.49-.67.72-.14.13-.27.24-.41.36-.11.1-.21.19-.33.29-.26.2-.51.39-.8.56-.27.17-.56.34-.84.49-.3.14-.6.27-.9.4-.3.11-.61.21-.93.3-.31.09-.64.16-.96.21-.33.06-.66.09-.97.11-.23.01-.46.03-.69.03-.33,0-.66-.03-.97-.06-.33-.03-.66-.07-.97-.14-.33-.06-.64-.14-.96-.24h-.01c.31-.03.63-.06.94-.11.33-.06.64-.13.96-.21.31-.09.63-.19.93-.3.31-.11.61-.26.9-.4.3-.14.57-.3.86-.47.27-.19.54-.37.8-.57.26-.2.5-.41.73-.64.24-.21.46-.46.67-.7.21-.26.41-.51.6-.77.03-.04.06-.1.09-.14.14-.23.29-.46.41-.69.16-.29.3-.57.43-.87.13-.3.24-.6.34-.92.1-.3.17-.61.24-.93.06-.33.11-.64.14-.96.03-.33.06-.66.06-.97,0-.23-.01-.46-.03-.69-.03-.33-.07-.64-.11-.96-.06-.33-.13-.64-.21-.96-.1-.3-.2-.61-.31-.92-.11-.3-.26-.6-.4-.89-.16-.29-.31-.57-.49-.84-.19-.27-.37-.53-.57-.79-.21-.24-.43-.49-.66-.73-.11-.11-.24-.24-.37-.36-.64-.5-1.32-.97-1.99-1.4-.1-.06-.19-.1-.29-.14-.47-.3-.92-.46-1.36-.6h0Z"/>
  </g>
</svg>