<?xml version="1.0" encoding="UTF-8"?>
<svg id="b" data-name="Layer 2" xmlns="http://www.w3.org/2000/svg" viewBox="0 0 90.3 18.21">
  <defs>
    <style>
      .d {
        fill: #fff;
      }
    </style>
  </defs>
  <g id="c" data-name="Layer 1">
    <g>
      <polygon class="d" points="75.76 0 60.03 0 60.03 2.91 66.4 2.91 66.4 18.18 69.52 18.18 69.52 2.91 75.76 2.91 75.76 0"/>
      <polygon class="d" points="18.43 2.91 18.43 2.91 18.43 18.05 3.9 0 0 0 0 18.18 3.12 18.18 3.12 3.89 14.62 18.18 18.43 18.18 18.54 18.18 34.16 18.18 34.16 15.28 21.55 15.28 21.55 10.48 31.69 10.48 31.69 7.58 21.55 7.58 21.55 2.91 34.16 2.91 34.16 0 18.43 0 18.43 2.91"/>
      <polygon class="d" points="56.64 .03 52.56 .04 47.29 6.57 42.02 .02 37.93 .02 52.56 18.19 56.65 18.19 49.34 9.11 56.64 .03"/>
      <polygon class="d" points="37.92 18.21 42.02 18.21 46.21 13 44.16 10.46 37.92 18.21"/>
      <path class="d" d="M76.46,16.45c-.23,0-.42.08-.59.24-.16.16-.24.35-.24.57,0,.23.08.42.24.58.16.16.36.24.59.24.15,0,.28-.04.41-.11.12-.07.22-.17.3-.29.08-.12.11-.26.12-.41,0-.22-.08-.41-.25-.57-.16-.16-.36-.24-.57-.24Z"/>
      <path class="d" d="M81.79,15.74c0,.27-.04.49-.12.67-.08.18-.2.32-.36.41-.15.09-.34.14-.57.14-.2,0-.39-.04-.55-.12-.16-.08-.28-.19-.37-.34-.09-.15-.14-.32-.14-.53h-1.38c0,.47.1.86.32,1.17.21.31.49.55.85.71.36.16.76.24,1.21.24.49,0,.93-.1,1.3-.28.37-.19.66-.46.87-.81.21-.35.31-.77.31-1.26v-5.33h-1.38v5.33Z"/>
      <path class="d" d="M90.11,15.01c-.12-.24-.29-.45-.51-.62-.21-.17-.46-.32-.72-.43-.27-.11-.55-.2-.84-.27l-.72-.18c-.16-.04-.31-.08-.47-.14-.15-.05-.3-.12-.42-.2-.13-.08-.23-.18-.3-.29-.07-.11-.11-.25-.11-.41,0-.19.06-.36.17-.51.11-.15.27-.26.48-.35.21-.09.46-.13.75-.13.41,0,.75.09,1.01.27.26.18.41.43.44.75h1.34c0-.43-.13-.8-.36-1.13-.23-.33-.56-.59-.97-.77-.41-.19-.89-.28-1.44-.28s-1.02.09-1.45.28c-.42.19-.76.45-1.01.78-.25.34-.37.73-.37,1.17,0,.54.18.98.55,1.3.37.33.87.57,1.5.73l.88.22c.27.07.52.15.72.24.21.09.37.2.48.32.11.13.17.29.18.49,0,.22-.07.41-.2.57-.13.16-.31.29-.54.38-.23.09-.5.14-.8.14s-.55-.04-.79-.13c-.23-.09-.42-.22-.57-.39-.14-.18-.23-.4-.25-.66h-1.37c.02.5.15.93.4,1.28.25.35.59.62,1.03.8.44.18.96.27,1.55.27s1.14-.1,1.57-.28c.44-.19.77-.45,1-.79.23-.34.34-.73.34-1.17,0-.33-.06-.61-.19-.86Z"/>
    </g>
  </g>
</svg>