<?xml version="1.0" encoding="UTF-8"?>
<svg id="b" data-name="Layer 2" xmlns="http://www.w3.org/2000/svg" viewBox="0 0 39.2 44.17">
  <defs>
    <style>
      .d {
        fill: #fff;
      }
    </style>
  </defs>
  <g id="c" data-name="Layer 1">
    <path class="d" d="M19.6,44.17c-.61,0-1.18-.16-1.7-.45l-5.4-3.21c-.81-.45-.41-.61-.16-.69,1.1-.37,1.3-.45,2.43-1.1.12-.08.28-.04.41.04l4.14,2.48c.16.08.37.08.49,0l16.19-9.37c.16-.08.24-.24.24-.45V12.72c0-.2-.08-.37-.24-.45L19.8,2.94c-.16-.08-.37-.08-.49,0L3.12,12.27c-.16.08-.24.28-.24.45v18.71c0,.16.08.37.24.45l4.42,2.56c2.39,1.22,3.9-.2,3.9-1.62V14.34c0-.24.2-.49.49-.49h2.07c.24,0,.49.2.49.49v18.46c0,3.21-1.74,5.07-4.79,5.07-.93,0-1.66,0-3.73-1.01l-4.26-2.43c-1.05-.61-1.7-1.74-1.7-2.96V12.76c0-1.22.65-2.35,1.7-2.96L17.89.43c1.01-.57,2.39-.57,3.41,0l16.19,9.37c1.05.61,1.7,1.74,1.7,2.96v18.71c0,1.22-.65,2.35-1.7,2.96l-16.19,9.37c-.53.24-1.14.37-1.7.37h0ZM24.59,31.3c-7.1,0-8.56-3.25-8.56-6.01,0-.24.2-.49.49-.49h2.11c.24,0,.45.16.45.41.32,2.15,1.26,3.21,5.56,3.21,3.41,0,4.87-.77,4.87-2.6,0-1.05-.41-1.83-5.72-2.35-4.42-.45-7.18-1.42-7.18-4.95,0-3.29,2.76-5.23,7.38-5.23,5.19,0,7.75,1.79,8.07,5.68,0,.12-.04.24-.12.37-.08.08-.2.16-.32.16h-2.11c-.2,0-.41-.16-.45-.37-.49-2.23-1.74-2.96-5.07-2.96-3.73,0-4.18,1.3-4.18,2.27,0,1.18.53,1.54,5.56,2.19,4.99.65,7.34,1.58,7.34,5.07-.04,3.57-2.96,5.6-8.12,5.6h0Z"/>
  </g>
</svg>