<?xml version="1.0" encoding="UTF-8"?>
<svg id="b" data-name="Layer 2" xmlns="http://www.w3.org/2000/svg" viewBox="0 0 93.56 26.65">
  <defs>
    <style>
      .l {
        fill: #fff;
      }
    </style>
  </defs>
  <g id="c" data-name="Layer 1">
    <g>
      <g>
        <path id="d" data-name="s" class="l" d="M32.35,14.8c-.8-.44-1.22-.8-1.22-1.31,0-.64.57-1.06,1.47-1.06,1.04,0,1.98.44,1.98.44l.74-2.25s-.68-.53-2.67-.53c-2.77,0-4.69,1.59-4.69,3.81,0,1.26.9,2.23,2.09,2.92.97.55,1.31.94,1.31,1.52s-.48,1.08-1.38,1.08c-1.34,0-2.6-.69-2.6-.69l-.78,2.25s1.16.78,3.13.78c2.85,0,4.89-1.4,4.89-3.93,0-1.36-1.03-2.32-2.27-3.03Z"/>
        <path id="e" data-name="h" class="l" d="M43.7,10.06c-1.4,0-2.5.67-3.35,1.68l-.05-.02,1.22-6.36h-3.17l-3.08,16.2h3.17l1.06-5.54c.41-2.09,1.49-3.38,2.5-3.38.71,0,.99.48.99,1.17,0,.44-.05.96-.14,1.4l-1.19,6.34h3.17l1.24-6.55c.14-.69.23-1.52.23-2.07,0-1.79-.94-2.87-2.6-2.87Z"/>
        <path id="f" data-name="o" class="l" d="M53.47,10.06c-3.81,0-6.34,3.45-6.34,7.28,0,2.46,1.52,4.43,4.37,4.43,3.75,0,6.27-3.35,6.27-7.28,0-2.27-1.33-4.43-4.3-4.43ZM51.9,19.35c-1.08,0-1.54-.92-1.54-2.07,0-1.82.94-4.78,2.67-4.78,1.13,0,1.49.97,1.49,1.91,0,1.95-.94,4.94-2.62,4.94Z"/>
        <path id="g" data-name="p" class="l" d="M65.87,10.06c-2.14,0-3.35,1.88-3.35,1.88h-.05l.18-1.7h-2.8c-.14,1.15-.39,2.9-.64,4.21l-2.21,11.6h3.17l.87-4.69h.07s.65.41,1.86.41c3.72,0,6.16-3.81,6.16-7.67,0-2.14-.94-4.04-3.26-4.04ZM62.84,19.39c-.82,0-1.31-.46-1.31-.46l.53-2.96c.37-1.98,1.4-3.29,2.5-3.29.97,0,1.26.9,1.26,1.75,0,2.05-1.22,4.96-2.99,4.96Z"/>
        <path id="h" data-name="dot" class="l" d="M73.66,5.51c-1.01,0-1.82.8-1.82,1.84,0,.94.6,1.59,1.49,1.59h.05c.99,0,1.84-.67,1.86-1.84,0-.92-.62-1.59-1.59-1.59Z"/>
        <polygon id="i" class="l" points="69.23 21.55 72.4 21.55 74.56 10.31 71.37 10.31 69.23 21.55"/>
        <path id="j" data-name="f" class="l" d="M82.62,10.29h-2.21l.11-.53c.18-1.08.83-2.05,1.88-2.05.56,0,1.01.16,1.01.16l.62-2.48s-.55-.28-1.72-.28-2.25.32-3.1,1.06c-1.08.92-1.59,2.25-1.84,3.58l-.09.53h-1.47l-.46,2.39h1.47l-1.68,8.87h3.17l1.68-8.87h2.18l.44-2.39Z"/>
        <path id="k" data-name="y" class="l" d="M90.25,10.31s-1.98,4.99-2.87,7.72h-.05c-.06-.88-.78-7.72-.78-7.72h-3.33l1.91,10.32c.05.23.02.37-.07.53-.37.71-.99,1.4-1.72,1.91-.6.44-1.26.71-1.79.9l.87,2.69c.64-.14,1.98-.67,3.1-1.72,1.45-1.36,2.78-3.45,4.16-6.3l3.88-8.32h-3.31Z"/>
      </g>
      <g>
        <path class="l" d="M15.66,3.03s-.29.09-.78.24c-.08-.26-.2-.59-.37-.91-.55-1.05-1.36-1.61-2.33-1.61h0c-.07,0-.14,0-.2.01-.03-.03-.06-.07-.09-.1C11.45.2,10.91-.02,10.26,0c-1.26.04-2.51.95-3.53,2.56-.72,1.14-1.26,2.57-1.41,3.67-1.45.45-2.46.76-2.48.77-.73.23-.75.25-.85.94-.07.52-1.98,15.29-1.98,15.29l15.85,2.74V3c-.08,0-.15.02-.19.03ZM12,4.16c-.84.26-1.75.54-2.67.83.26-.99.75-1.97,1.35-2.62.22-.24.54-.51.91-.66.35.73.42,1.76.42,2.45ZM10.28.84c.3,0,.54.06.76.2-.34.18-.67.43-.98.76-.8.86-1.41,2.19-1.66,3.48-.76.24-1.51.47-2.2.68.43-2.02,2.13-5.06,4.07-5.12ZM7.83,12.37c.09,1.35,3.63,1.64,3.83,4.8.16,2.48-1.32,4.18-3.44,4.32-2.55.16-3.95-1.34-3.95-1.34l.54-2.3s1.41,1.07,2.54.99c.74-.05,1-.65.98-1.07-.11-1.76-3-1.66-3.18-4.54-.15-2.43,1.44-4.9,4.97-5.12,1.36-.09,2.05.26,2.05.26l-.81,3.01s-.9-.41-1.96-.34c-1.56.1-1.58,1.08-1.56,1.33ZM12.83,3.9c0-.64-.09-1.53-.38-2.29.96.18,1.43,1.26,1.63,1.91-.37.11-.79.24-1.24.38Z"/>
        <path class="l" d="M16.37,25.91l6.57-1.63s-2.83-19.14-2.85-19.27c-.02-.13-.13-.2-.23-.21-.09,0-1.95-.04-1.95-.04,0,0-1.13-1.1-1.55-1.51v22.66Z"/>
      </g>
    </g>
  </g>
</svg>