<?xml version="1.0" encoding="UTF-8"?>
<svg id="b" data-name="Layer 2" xmlns="http://www.w3.org/2000/svg" viewBox="0 0 126.78 25.57">
  <defs>
    <style>
      .d {
        fill: #fff;
      }
    </style>
  </defs>
  <g id="c" data-name="Layer 1">
    <path class="d" d="M59.61,7.23c1.23,0,1.87,1.15,1.87,3.49,0,.12.01.27.01.41,0,.91-.19,1.77-.55,2.55l.02-.04c-.28.44-.76.73-1.32.73h-.07,0-.04c-.53,0-.99-.3-1.23-.73h0c-.3-.73-.47-1.56-.47-2.44,0-.19,0-.38.03-.57v.03c0-2.3.58-3.44,1.76-3.44h0ZM36.21,7.2c-.7.08-1.28.51-1.58,1.1h0c-.66.93-1.06,2.08-1.06,3.32v.08h0c0,.57.12,1.12.33,1.62v-.03c.24.69.6,1.05,1.02,1.14.05,0,.1,0,.15,0,.51,0,.96-.22,1.27-.57h0c.69-.68,1.16-1.57,1.33-2.57v-.03c.08-.39.12-.84.13-1.3h0c0-.58-.12-1.13-.33-1.63v.03c-.25-.69-.6-1.05-1.02-1.14-.07-.02-.15-.03-.24-.03h0ZM25.21,7.2c-.7.08-1.28.51-1.58,1.1h0c-.66.93-1.06,2.08-1.06,3.32v.08h0c0,.57.12,1.12.33,1.62v-.03c.24.69.6,1.05,1.02,1.14.05,0,.1,0,.15,0,.51,0,.96-.22,1.27-.57h0c.69-.68,1.16-1.57,1.33-2.57v-.03c.08-.38.13-.81.13-1.25v-.06h0c0-.57-.12-1.12-.33-1.62v.03c-.25-.69-.6-1.05-1.02-1.14-.07-.02-.15-.03-.24-.03h0,0ZM105.61,7.14c.06,0,.13,0,.2,0,.54,0,1.04.14,1.47.39h-.01c.3.24.49.62.49,1.04,0,.05,0,.11,0,.16h0c0,.82-.71,1.24-2.14,1.26v-2.85h0ZM94.91,4.85v11.96h6.55v-2.55h-3.31v-2.2h2.86v-2.47h-2.85v-2.19h3.29v-2.54h-6.53ZM120.23,4.83v11.96h6.55v-2.55h-3.33v-2.19h2.85v-2.47h-2.85v-2.2h3.31v-2.55h-6.53ZM102.39,4.83v11.96h3.23v-5.44h.06l2.61,5.44h3.41l-2.58-5.38c1.14-.5,1.94-1.61,1.95-2.91h0v-.11c0-1.06-.52-1.99-1.31-2.56h0c-.92-.63-2.06-1-3.28-1-.11,0-.22,0-.32,0h.02-3.76ZM81.32,4.83l-1.53,11.96h3.06l.82-8.23,2.09,8.23h2.18l1.98-8.21.87,8.21h3.19l-1.61-11.96h-4.17l-.63,2.68c-.16.69-.32,1.39-.46,2.11l-.35,1.86c-.33-1.86-.79-4.07-1.37-6.66h-4.07ZM66.7,4.83l-1.53,11.96h3.06l.82-8.23,2.08,8.23h2.18l2-8.21.87,8.21h3.19l-1.61-11.96h-4.18l-.63,2.68c-.16.69-.32,1.39-.46,2.11l-.35,1.86c-.41-2.23-.86-4.45-1.36-6.66h-4.07ZM117.4,4.52c-.07,0-.16,0-.24,0-3.28,0-5.95,2.66-5.95,5.95,0,.07,0,.14,0,.22h0c0,.08,0,.18,0,.28,0,1.69.66,3.22,1.74,4.36h0c1.11,1.1,2.63,1.78,4.31,1.78.08,0,.17,0,.25,0h-.01c.65,0,1.28-.11,1.87-.29h-.05s0-2.84,0-2.84c-.48.16-1.03.25-1.59.27h-.11c-.84,0-1.6-.36-2.12-.93h0c-.53-.69-.84-1.57-.84-2.52s.31-1.8.83-2.5h0c.49-.57,1.22-.95,2.03-.95h.07,0c.62,0,1.23.1,1.8.27h-.05v-2.85c-.56-.15-1.19-.24-1.85-.24h-.07,0,0ZM51.83,4.52c-.07,0-.16,0-.24,0-3.28,0-5.95,2.66-5.95,5.95,0,.07,0,.14,0,.22h0c0,.08,0,.18,0,.28,0,1.69.66,3.22,1.74,4.36h0c1.1,1.1,2.63,1.78,4.3,1.78.08,0,.17,0,.26,0h-.01c.65,0,1.28-.11,1.87-.29h-.05s0-2.84,0-2.84c-.48.16-1.03.25-1.59.27h-.11c-.84,0-1.6-.36-2.12-.93h0c-.53-.69-.84-1.57-.84-2.52s.31-1.8.83-2.5h0c.49-.57,1.22-.95,2.03-.95h.07,0c.63,0,1.23.1,1.8.27h-.05v-2.85c-.56-.15-1.19-.24-1.86-.24h-.07,0,0ZM59.57,4.5c-.07,0-.15,0-.24,0-1.41,0-2.68.62-3.55,1.61h0c-.85,1.13-1.37,2.54-1.37,4.09,0,.16,0,.31.02.46v-.02c0,.15-.02.32-.02.49,0,1.61.51,3.1,1.38,4.32l-.02-.02c.88,1.03,2.18,1.68,3.63,1.68.11,0,.21,0,.32,0h-.01c.08,0,.17,0,.26,0,1.44,0,2.72-.65,3.58-1.67h0c.85-1.18,1.37-2.65,1.37-4.24,0-.15,0-.31-.01-.46v.02c0-.14.01-.29.01-.45,0-1.58-.52-3.04-1.4-4.21v.02c-.9-1-2.2-1.62-3.65-1.62-.11,0-.21,0-.31,0h.01ZM36.13,4.26c.34,0,.67.04.98.11h-.03c1.22.23,2.22.98,2.79,2.01v.02c.54.93.86,2.05.86,3.24,0,.08,0,.15,0,.23h0v.08c0,1.8-.51,3.49-1.39,4.92l.02-.04c-.77,1.54-2.32,2.6-4.12,2.64h0c-.34,0-.67-.05-.98-.12h.03c-1.22-.23-2.22-.98-2.79-2v-.02c-.54-.95-.86-2.08-.86-3.29,0-.07,0-.14,0-.2h0v-.08c0-1.8.51-3.48,1.4-4.9l-.02.04c.77-1.54,2.32-2.59,4.11-2.63h.01ZM25.12,4.26c.34,0,.67.04.98.11h-.03c1.22.24,2.22.99,2.79,2.01v.02c.55.93.87,2.06.87,3.25,0,.07,0,.14,0,.22h0v.07c0,1.81-.51,3.5-1.4,4.93l.02-.04c-.77,1.54-2.32,2.6-4.12,2.64h0c-.34,0-.67-.05-.98-.12h.03c-1.22-.23-2.22-.98-2.79-2v-.02c-.54-.95-.85-2.07-.85-3.27,0-.08,0-.15,0-.22h0v-.09c0-1.79.51-3.46,1.39-4.88l-.02.04c.77-1.54,2.32-2.59,4.11-2.63h.01ZM18.3,2.35h.16c.36,0,.69.14.95.35h0c.31.24.51.59.54,1h0s0,.08,0,.13c0,.26-.07.51-.18.73h0c-.84,1.84-1.45,3.98-1.69,6.23v.09c-.33,1.73-.52,3.73-.52,5.76,0,.33,0,.65.01.98v-.05c0,.07.01.15.01.23,0,.34-.08.66-.22.94h0c-.17.34-.52.59-.92.62h-.01c-.56,0-1.05-.25-1.38-.65h0c-1.83-2.06-3.18-4.58-3.86-7.36l-.03-.12c-1.14,2.25-1.98,3.93-2.52,5.06-1.03,1.99-1.92,3-2.65,3.05-.48.04-.88-.36-1.23-1.2-1.25-3.8-2.26-8.31-2.85-12.95l-.04-.38c-.01-.07-.02-.16-.02-.24,0-.35.11-.67.31-.93h0c.26-.32.66-.54,1.11-.54h0c.08-.02.16-.03.25-.03.7,0,1.27.57,1.27,1.27h0c.54,3.68,1.15,6.79,1.78,9.34l3.84-7.33c.22-.56.71-.96,1.31-1.05h0c.77-.05,1.25.44,1.44,1.48.41,2.28.98,4.3,1.74,6.22l-.08-.22c.18-3.53,1.02-6.83,2.39-9.83l-.07.17c.21-.44.64-.75,1.15-.78h0,0ZM3.98,0h0C1.79,0,0,1.79,0,3.99v.02h0v13.34h0c0,2.21,1.79,4,4,4h16.57l7.56,4.22-1.72-4.22h12.54c2.21,0,4-1.79,4-4h0V4.01h0c0-2.21-1.79-4.01-4-4.01H3.98Z"/>
  </g>
</svg>