<?xml version="1.0" encoding="UTF-8"?>
<svg id="b" data-name="Layer 2" xmlns="http://www.w3.org/2000/svg" viewBox="0 0 35.73 35.73">
  <defs>
    <style>
      .d {
        fill: #fff;
      }
    </style>
  </defs>
  <g id="c" data-name="Layer 1">
    <g>
      <path class="d" d="M2.54,17.87c0,6.07,3.53,11.31,8.64,13.79L3.87,11.63c-.85,1.91-1.33,4.02-1.33,6.24Z"/>
      <path class="d" d="M28.21,17.09c0-1.89-.68-3.21-1.26-4.23-.78-1.26-1.51-2.33-1.51-3.59,0-1.41,1.07-2.72,2.57-2.72.07,0,.13,0,.2.01-2.73-2.5-6.36-4.02-10.35-4.02-5.35,0-10.07,2.75-12.81,6.91.36.01.7.02.99.02,1.6,0,4.08-.19,4.08-.19.83-.05.92,1.16.1,1.26,0,0-.83.1-1.75.15l5.58,16.6,3.35-10.06-2.39-6.54c-.83-.05-1.61-.15-1.61-.15-.83-.05-.73-1.31.1-1.26,0,0,2.53.19,4.04.19,1.6,0,4.08-.19,4.08-.19.83-.05.92,1.16.1,1.26,0,0-.83.1-1.75.15l5.54,16.48,1.53-5.11c.66-2.12,1.17-3.64,1.17-4.95Z"/>
      <path class="d" d="M18.14,19.21l-4.6,13.36c1.37.4,2.83.62,4.33.62,1.78,0,3.5-.31,5.09-.87-.04-.07-.08-.14-.11-.21l-4.71-12.91Z"/>
      <path class="d" d="M31.32,10.51c.07.49.1,1.01.1,1.58,0,1.56-.29,3.3-1.17,5.49l-4.68,13.54c4.56-2.66,7.62-7.59,7.62-13.25,0-2.66-.68-5.17-1.88-7.35Z"/>
      <path class="d" d="M17.87,0C8.02,0,0,8.01,0,17.87s8.02,17.87,17.87,17.87,17.87-8.01,17.87-17.87C35.73,8.01,27.72,0,17.87,0ZM17.87,34.91C8.47,34.91.82,27.27.82,17.87S8.47.82,17.87.82s17.05,7.65,17.05,17.05-7.65,17.05-17.05,17.05Z"/>
    </g>
  </g>
</svg>